<?xml version="1.0" encoding="iso-8859-1"?>
<!-- Generator: Adobe Illustrator 19.0.0, SVG Export Plug-In . SVG Version: 6.00 Build 0)  -->
<svg version="1.1" id="Capa_1" xmlns="http://www.w3.org/2000/svg" xmlns:xlink="http://www.w3.org/1999/xlink" x="0px" y="0px"
	 viewBox="0 0 512 512" style="enable-background:new 0 0 512 512;" xml:space="preserve">
<polygon style="fill:#2799FF;" points="473.552,278.458 445.475,369.377 436.232,399.321 414.223,470.598 97.777,470.598 
	75.768,399.321 66.525,369.377 38.448,278.458 "/>
<polygon style="fill:#1A68E5;" points="473.552,278.458 445.475,369.377 436.232,399.321 414.223,470.598 256,470.598 256,278.458 
	"/>
<polygon style="fill:#E1E1E4;" points="445.475,369.377 436.232,399.321 391.456,399.321 377.941,470.598 347.458,470.598 
	360.983,399.321 314.021,399.321 309.51,470.598 279.516,470.598 284.017,399.321 236.816,399.321 241.318,470.598 211.314,470.598 
	206.812,399.321 159.85,399.321 173.365,470.598 142.882,470.598 129.367,399.321 75.768,399.321 66.525,369.377 123.688,369.377 
	110.513,299.918 140.996,299.918 154.171,369.377 204.916,369.377 200.524,299.918 230.528,299.918 234.92,369.377 285.904,369.377 
	290.296,299.918 320.299,299.918 315.908,369.377 366.663,369.377 379.828,299.918 410.311,299.918 397.135,369.377 "/>
<polygon style="fill:#C8C6CD;" points="397.135,369.377 445.475,369.377 436.232,399.321 391.456,399.321 377.941,470.598 
	347.458,470.598 360.983,399.321 314.021,399.321 309.51,470.598 279.516,470.598 284.017,399.321 256,399.321 256,369.377 
	285.904,369.377 290.296,299.918 320.299,299.918 315.908,369.377 366.663,369.377 379.828,299.918 410.311,299.918 "/>
<path style="fill:#BFD632;" d="M454.628,142.992v15.701c0,29.974-27.359,54.348-60.976,54.348H95.99v-29.944h297.662
	c17.108,0,31.032-10.949,31.032-24.404v-15.701c0-13.465-13.924-24.414-31.032-24.414H95.99V88.634h297.662
	C427.269,88.634,454.628,113.018,454.628,142.992z"/>
<path style="fill:#FFA91E;" d="M73.712,95.75v15.711c0,13.455,13.924,24.404,31.042,24.404h297.662v29.944H104.754
	c-33.627,0-60.986-24.384-60.986-54.348V95.75c0-29.964,27.359-54.348,60.986-54.348h297.662v29.944H104.754
	C87.636,71.346,73.712,82.296,73.712,95.75z"/>
<g>
	<rect x="256" y="41.402" style="fill:#FF8900;" width="146.415" height="29.944"/>
	<rect x="256" y="135.865" style="fill:#FF8900;" width="146.415" height="29.944"/>
</g>
<path style="fill:#80C626;" d="M454.628,142.992v15.701c0,29.974-27.359,54.348-60.976,54.348H256v-29.944h137.652
	c17.108,0,31.032-10.949,31.032-24.404v-15.701c0-13.465-13.924-24.414-31.032-24.414H256V88.634h137.652
	C427.269,88.634,454.628,113.018,454.628,142.992z"/>
<rect y="213.051" style="fill:#C8C6CD;" width="512" height="95.351"/>
<rect x="256" y="213.051" style="fill:#AEADB3;" width="256" height="95.351"/>
</svg>
