<?xml version="1.0" encoding="iso-8859-1"?>
<!-- Generator: Adobe Illustrator 19.0.0, SVG Export Plug-In . SVG Version: 6.00 Build 0)  -->
<svg xmlns="http://www.w3.org/2000/svg" xmlns:xlink="http://www.w3.org/1999/xlink" version="1.1" id="Layer_1" x="0px" y="0px" viewBox="0 0 512 512" style="enable-background:new 0 0 512 512;" xml:space="preserve" width="512px" height="512px">
<g>
	<g>
		<path d="M448.107,198.075c4.161-7.345,6.521-15.634,6.521-24.41v-15.703c0-29.971-27.355-54.353-60.98-54.353H95.987v29.944    h297.661c17.113,0,31.036,10.95,31.036,24.409v15.703c0,13.46-13.922,24.41-31.036,24.41H95.987H0v95.355h47.696l50.08,162.196    h316.447l50.08-162.196H512v-95.355H448.107z M94.83,344.584L79.036,293.43h49.732l9.496,51.154H94.83z M119.87,425.682    l-15.794-51.154h39.747l9.496,51.154H119.87z M159.222,293.43h47.011l3.165,51.154h-40.68L159.222,293.43z M183.774,425.682    l-9.496-51.154h36.974l3.165,51.154H183.774z M275.288,425.682h-30.869l-3.166-51.154h37.2L275.288,425.682z M280.306,344.584    H239.4l-3.165-51.154h47.237L280.306,344.584z M335.932,425.682H305.29l3.165-51.154h36.974L335.932,425.682z M350.986,344.584    h-40.679l3.165-51.154h47.01L350.986,344.584z M392.13,425.682h-25.743l9.496-51.154h32.041L392.13,425.682z M417.17,344.584    h-35.728l9.496-51.154h42.025L417.17,344.584z M482.056,263.486h-8.507H38.451h-8.507v-35.467h66.043h297.661h88.408V263.486z" fill="#707070"/>
	</g>
</g>
<g>
	<g>
		<path d="M104.75,86.318h297.661V56.375H104.75c-33.625,0-60.98,24.383-60.98,54.354v15.703    c0.001,29.971,27.356,54.354,60.98,54.354h297.661v-29.944H104.75c-17.114,0-31.036-10.95-31.036-24.41v-15.703    C73.715,97.269,87.636,86.318,104.75,86.318z" fill="#707070"/>
	</g>
</g>
</svg>
